<svg width="16" height="16" viewBox="0 0 16 16" fill="none" xmlns="http://www.w3.org/2000/svg">
<g id="Group">
<path id="Vector" d="M15.5 7.99634C15.5 12.1385 12.1421 15.4963 8 15.4963C3.85786 15.4963 0.5 12.1385 0.5 7.99634C0.5 3.8542 3.85786 0.496338 8 0.496338C12.1421 0.496338 15.5 3.8542 15.5 7.99634Z" fill="#26A17B" stroke="white"/>
<g id="Vector_2">
<mask id="path-2-inside-1_563_7960" fill="white">
<path fill-rule="evenodd" clip-rule="evenodd" d="M8.9609 8.68801V8.68701C8.9059 8.69101 8.6224 8.70801 7.9899 8.70801C7.4849 8.70801 7.1294 8.69301 7.0044 8.68701V8.68851C5.0604 8.60301 3.6094 8.26451 3.6094 7.85951C3.6094 7.45501 5.0604 7.11651 7.0044 7.02951V8.35151C7.1314 8.36051 7.4954 8.38201 7.9984 8.38201C8.6019 8.38201 8.9044 8.35701 8.9609 8.35201V7.03051C10.9009 7.11701 12.3484 7.45551 12.3484 7.85951C12.3484 8.26451 10.9009 8.60201 8.9609 8.68801ZM8.9609 6.89301V5.71001H11.6679V3.90601H4.2974V5.71001H7.0044V6.89251C4.8044 6.99351 3.1499 7.42951 3.1499 7.95151C3.1499 8.47351 4.8044 8.90901 7.0044 9.01051V12.8015H8.9609V9.00951C11.1574 8.90851 12.8079 8.47301 12.8079 7.95151C12.8079 7.43001 11.1574 6.99451 8.9609 6.89301Z"/>
</mask>
<path fill-rule="evenodd" clip-rule="evenodd" d="M8.9609 8.68801V8.68701C8.9059 8.69101 8.6224 8.70801 7.9899 8.70801C7.4849 8.70801 7.1294 8.69301 7.0044 8.68701V8.68851C5.0604 8.60301 3.6094 8.26451 3.6094 7.85951C3.6094 7.45501 5.0604 7.11651 7.0044 7.02951V8.35151C7.1314 8.36051 7.4954 8.38201 7.9984 8.38201C8.6019 8.38201 8.9044 8.35701 8.9609 8.35201V7.03051C10.9009 7.11701 12.3484 7.45551 12.3484 7.85951C12.3484 8.26451 10.9009 8.60201 8.9609 8.68801ZM8.9609 6.89301V5.71001H11.6679V3.90601H4.2974V5.71001H7.0044V6.89251C4.8044 6.99351 3.1499 7.42951 3.1499 7.95151C3.1499 8.47351 4.8044 8.90901 7.0044 9.01051V12.8015H8.9609V9.00951C11.1574 8.90851 12.8079 8.47301 12.8079 7.95151C12.8079 7.43001 11.1574 6.99451 8.9609 6.89301Z" fill="white"/>
<path d="M8.9609 8.68701H9.9609V7.61164L8.88837 7.68964L8.9609 8.68701ZM7.0044 8.68701L7.05235 7.68816L6.0044 7.63785V8.68701H7.0044ZM7.0044 8.68851L6.96046 9.68754L8.0044 9.73345V8.68851H7.0044ZM7.0044 7.02951H8.0044V5.98375L6.95969 6.03051L7.0044 7.02951ZM7.0044 8.35151H6.0044V9.28315L6.93371 9.349L7.0044 8.35151ZM8.9609 8.35201L9.04905 9.34811L9.9609 9.26742V8.35201H8.9609ZM8.9609 7.03051L9.00545 6.0315L7.9609 5.98492V7.03051H8.9609ZM8.9609 5.71001V4.71001H7.9609V5.71001H8.9609ZM11.6679 5.71001V6.71001H12.6679V5.71001H11.6679ZM11.6679 3.90601H12.6679V2.90601H11.6679V3.90601ZM4.2974 3.90601V2.90601H3.2974V3.90601H4.2974ZM4.2974 5.71001H3.2974V6.71001H4.2974V5.71001ZM7.0044 5.71001H8.0044V4.71001H7.0044V5.71001ZM7.0044 6.89251L7.05026 7.89145L8.0044 7.84765V6.89251H7.0044ZM7.0044 9.01051H8.0044V8.05558L7.05049 8.01157L7.0044 9.01051ZM7.0044 12.8015H6.0044V13.8015H7.0044V12.8015ZM8.9609 12.8015V13.8015H9.9609V12.8015H8.9609ZM8.9609 9.00951L8.91497 8.01056L7.9609 8.05443V9.00951H8.9609ZM9.9609 8.68801V8.68701H7.9609V8.68801H9.9609ZM8.88837 7.68964C8.86485 7.69135 8.60689 7.70801 7.9899 7.70801V9.70801C8.63791 9.70801 8.94695 9.69066 9.03344 9.68437L8.88837 7.68964ZM7.9899 7.70801C7.50447 7.70801 7.16541 7.69358 7.05235 7.68816L6.95646 9.68586C7.09339 9.69243 7.46533 9.70801 7.9899 9.70801V7.70801ZM6.0044 8.68701V8.68851H8.0044V8.68701H6.0044ZM7.04834 7.68947C6.11343 7.64835 5.33372 7.5473 4.81212 7.42163C4.54321 7.35685 4.39757 7.29822 4.34232 7.26833C4.31396 7.25299 4.35698 7.27037 4.41801 7.33801C4.4843 7.41149 4.6094 7.59015 4.6094 7.85951H2.6094C2.6094 8.23011 2.77984 8.50794 2.93308 8.67779C3.08106 8.8418 3.25263 8.95273 3.39068 9.02742C3.66823 9.17757 4.00684 9.28485 4.34368 9.366C5.03358 9.53221 5.95137 9.64316 6.96046 9.68754L7.04834 7.68947ZM4.6094 7.85951C4.6094 8.12931 4.48396 8.30813 4.4177 8.38151C4.35666 8.44909 4.31368 8.46643 4.34212 8.45105C4.39752 8.4211 4.5433 8.36245 4.81231 8.29758C5.33412 8.17176 6.11401 8.07035 7.04911 8.02851L6.95969 6.03051C5.95079 6.07566 5.03319 6.187 4.34349 6.35331C4.00675 6.4345 3.66829 6.54176 3.39087 6.69176C3.25291 6.76635 3.08138 6.87718 2.93339 7.04104C2.78019 7.21069 2.6094 7.48858 2.6094 7.85951H4.6094ZM6.0044 7.02951V8.35151H8.0044V7.02951H6.0044ZM6.93371 9.349C7.08022 9.35939 7.46811 9.38201 7.9984 9.38201V7.38201C7.5227 7.38201 7.18258 7.36162 7.07509 7.35401L6.93371 9.349ZM7.9984 9.38201C8.63041 9.38201 8.96234 9.35579 9.04905 9.34811L8.87275 7.3559C8.84646 7.35823 8.57339 7.38201 7.9984 7.38201V9.38201ZM9.9609 8.35201V7.03051H7.9609V8.35201H9.9609ZM8.91636 8.02951C9.84929 8.07111 10.6272 8.17238 11.1474 8.29801C11.4157 8.36278 11.5608 8.4213 11.6157 8.45105C11.6439 8.46632 11.6009 8.44886 11.5398 8.38117C11.4735 8.30767 11.3484 8.12895 11.3484 7.85951H13.3484C13.3484 7.48906 13.178 7.21139 13.025 7.04172C12.8772 6.87784 12.7059 6.76698 12.5681 6.69235C12.291 6.5423 11.953 6.43505 11.6169 6.35388C10.9284 6.18763 10.0125 6.0764 9.00545 6.0315L8.91636 8.02951ZM11.3484 7.85951C11.3484 7.59089 11.4729 7.41242 11.5393 7.33865C11.6004 7.27081 11.6436 7.25326 11.6156 7.26846C11.5609 7.29811 11.4159 7.35657 11.1477 7.42125C10.6275 7.5467 9.8497 7.64762 8.91662 7.68899L9.00519 9.68702C10.0121 9.64239 10.928 9.53156 11.6166 9.36551C11.9528 9.28444 12.2909 9.17722 12.5683 9.02699C12.7062 8.95225 12.8777 8.84122 13.0255 8.67707C13.1787 8.50698 13.3484 8.22937 13.3484 7.85951H11.3484ZM9.9609 6.89301V5.71001H7.9609V6.89301H9.9609ZM8.9609 6.71001H11.6679V4.71001H8.9609V6.71001ZM12.6679 5.71001V3.90601H10.6679V5.71001H12.6679ZM11.6679 2.90601H4.2974V4.90601H11.6679V2.90601ZM3.2974 3.90601V5.71001H5.2974V3.90601H3.2974ZM4.2974 6.71001H7.0044V4.71001H4.2974V6.71001ZM6.0044 5.71001V6.89251H8.0044V5.71001H6.0044ZM6.95854 5.89356C5.81494 5.94606 4.77311 6.08659 3.99025 6.29904C3.60643 6.4032 3.22722 6.53971 2.92114 6.72687C2.67618 6.87664 2.1499 7.26131 2.1499 7.95151H4.1499C4.1499 8.3807 3.83043 8.51512 3.96445 8.43318C4.03734 8.38861 4.20925 8.31194 4.51405 8.22923C5.10845 8.06792 5.99386 7.93995 7.05026 7.89145L6.95854 5.89356ZM2.1499 7.95151C2.1499 8.64179 2.67631 9.02643 2.92126 9.17615C3.22735 9.36325 3.60655 9.4997 3.99033 9.60381C4.77311 9.81616 5.81486 9.95669 6.95831 10.0094L7.05049 8.01157C5.99395 7.96282 5.10845 7.83485 4.51397 7.67358C4.20913 7.59088 4.03721 7.51424 3.96432 7.46969C3.83031 7.38777 4.1499 7.52222 4.1499 7.95151H2.1499ZM6.0044 9.01051V12.8015H8.0044V9.01051H6.0044ZM7.0044 13.8015H8.9609V11.8015H7.0044V13.8015ZM9.9609 12.8015V9.00951H7.9609V12.8015H9.9609ZM9.00684 10.0084C10.1487 9.95594 11.1887 9.81553 11.9703 9.60322C12.3534 9.49912 12.7321 9.36265 13.0378 9.17549C13.2828 9.0255 13.8079 8.64091 13.8079 7.95151H11.8079C11.8079 7.52285 12.1267 7.38826 11.9936 7.46976C11.9212 7.51408 11.7499 7.59058 11.4459 7.67317C10.8531 7.83423 9.96961 7.96207 8.91497 8.01056L9.00684 10.0084ZM13.8079 7.95151C13.8079 7.26211 13.2828 6.87751 13.0379 6.72753C12.7321 6.54037 12.3535 6.40388 11.9703 6.29976C11.1889 6.08738 10.1489 5.94683 9.00706 5.89407L8.91474 7.89194C9.96945 7.94068 10.8529 8.06863 11.4458 8.22976C11.7499 8.31238 11.9211 8.3889 11.9935 8.43323C12.1267 8.51475 11.8079 8.38015 11.8079 7.95151H13.8079Z" fill="white" mask="url(#path-2-inside-1_563_7960)"/>
</g>
</g>
</svg>
